<svg role="img" viewBox="0 0 40 40" xmlns="http://www.w3.org/2000/svg" id="Langchain--Streamline-Simple-Icons" height="40" width="40">
  <desc>
    Langchain Streamline Icon: https://streamlinehq.com
  </desc>
  <title>LangChain</title>
  <path d="M10.164666666666667 9.8625C4.559833333333334 9.8625 0 14.410333333333334 0 20s4.5600000000000005 10.1375 10.164666666666667 10.1375h19.67066666666667C35.44016666666667 30.1375 40 25.589666666666666 40 20s-4.5600000000000005 -10.1375 -10.164666666666667 -10.1375ZM9.962333333333333 13.085c0.8216666666666667 0.020666666666666667 1.7000000000000002 0.416 2.1216666666666666 1.038 0.6121666666666667 0.7653333333333333 0.7963333333333333 1.778 1.4906666666666666 2.488666666666667 0.934 1.0196666666666667 1.9983333333333335 1.9175000000000002 2.8601666666666667 3.0033333333333334 0.8153333333333334 0.9923333333333334 1.3976666666666668 2.156166666666667 1.906 3.329166666666667 0.20733333333333334 0.3891666666666667 0.20950000000000002 0.867 0.5166666666666667 1.1995 0.15133333333333335 0.20066666666666666 0.891 0.7471666666666666 0.7305 0.9408333333333334 0.0925 0.20066666666666666 0.7836666666666667 0.4766666666666666 0.5438333333333333 0.6711666666666667 -0.324 0.06666666666666667 -0.6881666666666667 0.07933333333333334 -0.936 -0.179 -0.0915 0.21000000000000002 -0.305 0.09933333333333334 -0.4698333333333333 0.07200000000000001a6.666666666666667 6.666666666666667 0 0 0 -0.04166666666666667 0.12266666666666667c-0.548 0.0365 -0.9590000000000001 -0.521 -1.22 -0.9416666666666667 -0.5185 -0.28 -1.107 -0.45033333333333336 -1.6366666666666667 -0.7433333333333334 -0.030333333333333337 0.4825 0.07533333333333334 1.0808333333333333 -0.385 1.3921666666666668 -0.023333333333333334 0.9275 1.4060000000000001 0.10933333333333335 1.5370000000000001 0.8006666666666666 -0.10166666666666667 0.011166666666666667 -0.21433333333333332 -0.015833333333333335 -0.2956666666666667 0.06216666666666667 -0.37316666666666665 0.36200000000000004 -0.8008333333333333 -0.27416666666666667 -1.2308333333333334 -0.011666666666666667 -0.5773333333333334 0.29 -0.6346666666666667 0.5268333333333334 -1.3493333333333333 0.5866666666666667 -0.0395 -0.059833333333333336 -0.023833333333333335 -0.09866666666666668 0.009833333333333333 -0.13516666666666668 0.2011666666666667 -0.23316666666666666 0.21583333333333335 -0.5076666666666667 0.5593333333333333 -0.6071666666666667 -0.3536666666666667 -0.05566666666666667 -0.6498333333333334 0.13883333333333334 -0.9476666666666667 0.29283333333333333 -0.3871666666666667 0.15833333333333335 -0.384 -0.3568333333333334 -0.9796666666666667 0.027333333333333338 -0.066 -0.05366666666666667 -0.034666666666666665 -0.10250000000000001 0.003 -0.14400000000000002 0.15133333333333335 -0.18450000000000003 0.35033333333333333 -0.21166666666666667 0.575 -0.20133333333333334 -1.1050000000000002 -0.6143333333333333 -1.6251666666666666 0.7511666666666666 -2.1355000000000004 0.07200000000000001 -0.15333333333333335 0.0405 -0.21083333333333334 0.17800000000000002 -0.3075 0.2753333333333334 -0.08333333333333334 -0.09133333333333334 -0.0205 -0.202 -0.0165 -0.3095 -0.09966666666666667 -0.04666666666666667 -0.226 -0.06833333333333334 -0.1965 -0.22766666666666668 -0.19516666666666665 -0.06583333333333334 -0.33133333333333337 0.049166666666666664 -0.4766666666666666 0.15866666666666668 -0.13116666666666668 -0.10133333333333333 0.08866666666666667 -0.24866666666666667 0.12933333333333336 -0.3541666666666667 0.117 -0.20266666666666666 0.38333333333333336 -0.04166666666666667 0.5185 -0.18766666666666668 0.38433333333333336 -0.218 0.9200000000000002 0.13566666666666669 1.3591666666666666 0.07583333333333334 0.3383333333333334 0.042499999999999996 0.7573333333333334 -0.3041666666666667 0.5876666666666668 -0.65 -0.36183333333333334 -0.46116666666666667 -0.29833333333333334 -1.0643333333333334 -0.30650000000000005 -1.6158333333333335 -0.04466666666666667 -0.3215 -0.8183333333333334 -0.7303333333333333 -1.042 -1.077 -0.2765 -0.31216666666666665 -0.49166666666666664 -0.6745 -0.7071666666666667 -1.0303333333333333 -0.7776666666666667 -1.5013333333333334 -0.533 -3.4306666666666663 -1.5128333333333333 -4.8245 -0.44333333333333336 0.24433333333333335 -1.0208333333333335 0.129 -1.403 -0.19833333333333333 -0.20633333333333334 0.1875 -0.21533333333333335 0.433 -0.2316666666666667 0.6935000000000001 -0.495 -0.4936666666666667 -0.43216666666666664 -1.4265 -0.03666666666666667 -1.9758333333333333 0.1615 -0.21700000000000003 0.35450000000000004 -0.3955 0.5700000000000001 -0.5526666666666668 0.04866666666666667 -0.035500000000000004 0.06516666666666668 -0.06983333333333333 0.06416666666666666 -0.12450000000000001 0.19566666666666668 -0.8778333333333332 0.9606666666666668 -1.2318333333333333 1.7823333333333333 -1.2111666666666667m20.6785 0.7666666666666667c0.9291666666666667 0 1.8010000000000002 0.35983333333333334 2.4566666666666666 1.0136666666666667s1.0166666666666666 1.5241666666666667 1.0166666666666666 2.4506666666666668c0 0.9266666666666667 -0.3611666666666667 1.7966666666666669 -1.0166666666666666 2.449666666666667v0.001l-1.5033333333333334 1.4991666666666668a3.466666666666667 3.466666666666667 0 0 1 -1.4328333333333334 0.861l-0.027333333333333338 0.007833333333333335 -0.009666666666666667 0.027333333333333338a3.4166666666666665 3.4166666666666665 0 0 1 -0.79 1.218l-1.5030000000000001 1.4991666666666668c-0.6556666666666667 0.654 -1.5283333333333335 1.0138333333333334 -2.4575 1.0138333333333334s-1.8010000000000002 -0.36 -2.4566666666666666 -1.0138333333333334c-1.355 -1.3511666666666666 -1.355 -3.549 0 -4.900333333333333l1.5031666666666668 -1.4991666666666668a3.4266666666666667 3.4266666666666667 0 0 1 1.43 -0.8571666666666666l0.028333333333333335 -0.008833333333333334 0.009666666666666667 -0.026333333333333337a3.4499999999999997 3.4499999999999997 0 0 1 0.792 -1.2228333333333334l1.5030000000000001 -1.4991666666666668c0.6556666666666667 -0.654 1.5285000000000002 -1.0138333333333334 2.4575 -1.0138333333333334zm0 1.4941666666666666a1.9666666666666666 1.9666666666666666 0 0 0 -1.3980000000000001 0.5770000000000001l-1.5030000000000001 1.4991666666666668a1.9683333333333335 1.9683333333333335 0 0 0 -0.5711666666666667 1.542l0.008833333333333334 0.09533333333333334c0.05383333333333334 0.442 0.24833333333333332 0.8406666666666667 0.5623333333333334 1.1528333333333334 0.21666666666666667 0.216 0.4555 0.35233333333333333 0.7451666666666666 0.4476666666666667a1.5 1.5 0 0 1 0.023333333333333334 0.2636666666666667 1.4733333333333334 1.4733333333333334 0 0 1 -0.4348333333333334 1.0506666666666666l-0.09233333333333334 0.09233333333333334c-0.5021666666666668 -0.17133333333333334 -0.9208333333333334 -0.4216666666666667 -1.299 -0.7986666666666667a3.4333333333333336 3.4333333333333336 0 0 1 -0.9601666666666666 -1.828l-0.0165 -0.09633333333333333 -0.07683333333333334 0.06133333333333334a1.8333333333333335 1.8333333333333335 0 0 0 -0.146 0.13233333333333333l-1.504 1.4991666666666668c-0.7705 0.7683333333333334 -0.7705 2.02 0 2.7883333333333336 0.38516666666666666 0.3841666666666667 0.8916666666666667 0.5766666666666667 1.399 0.5768333333333334 0.5071666666666668 0 1.0128333333333335 -0.19266666666666665 1.3980000000000001 -0.5770000000000001l1.5031666666666668 -1.4991666666666668c0.7705 -0.7683333333333334 0.7705 -2.0188333333333337 0 -2.7883333333333336a1.95 1.95 0 0 0 -0.7278333333333333 -0.45816666666666667 1.6666666666666667 1.6666666666666667 0 0 1 -0.023333333333333334 -0.2685c0 -0.43183333333333335 0.1705 -0.8416666666666667 0.48350000000000004 -1.1538333333333335 0.5031666666666667 0.17133333333333334 0.95 0.44899999999999995 1.3270000000000002 0.8250000000000001 0.5011666666666668 0.49983333333333335 0.8323333333333334 1.1316666666666668 0.9593333333333334 1.828l0.0175 0.09633333333333333 0.07583333333333334 -0.06216666666666667a1.8333333333333335 1.8333333333333335 0 0 0 0.14783333333333334 -0.13233333333333333l1.5033333333333334 -1.4993333333333334c0.7703333333333333 -0.7683333333333334 0.7713333333333333 -2.0206666666666666 0 -2.7891666666666666a1.9666666666666666 1.9666666666666666 0 0 0 -1.3991666666666667 -0.5770000000000001Zm-16.62166666666667 8.5945 -0.001 0.001c-0.13216666666666665 0.513 -0.1746666666666667 1.3863333333333334 -0.8433333333333334 1.4116666666666666 -0.05500000000000001 0.29600000000000004 0.2046666666666667 0.40750000000000003 0.44250000000000006 0.31233333333333335 0.235 -0.10750000000000001 0.3468333333333334 0.08466666666666667 0.42616666666666664 0.27616666666666667 0.36283333333333334 0.052833333333333336 0.899 -0.12083333333333333 0.9193333333333333 -0.5496666666666666 -0.5416666666666667 -0.3111666666666667 -0.7088333333333334 -0.9029999999999999 -0.9436666666666668 -1.4515" fill="#ffffff" stroke-width="1.6667"></path>
</svg>