<svg fill="#FFFFFF" xmlns="http://www.w3.org/2000/svg"  viewBox="0 0 24 24" width="288px" height="288px"><path d="M14.995,21.533V16	c0-0.16-0.015-0.333-0.041-0.48l-0.021-0.094l0.495-0.227c1.487-0.76,2.579-2.053,2.579-3.706c0-0.893-0.344-1.693-0.881-2.36	L16.935,8.92l0.012-0.093c0.068-0.627,0.077-1.253,0.029-1.907c-0.048-0.64-0.695-1.066-1.312-0.867	c-0.676,0.227-1.339,0.52-1.973,0.92l-0.231,0.16c-0.472-0.094-0.959-0.146-1.459-0.146c-0.504,0-0.991,0.053-1.461,0.133	l-0.232-0.146c-0.635-0.4-1.296-0.693-1.971-0.92C7.722,5.854,7.075,6.28,7.026,6.92C6.975,7.574,6.986,8.2,7.052,8.827L7.064,8.92	L6.875,9.133C6.338,9.8,5.998,10.6,5.998,11.493c0,1.667,1.097,2.947,2.573,3.706l0.484,0.214L9.031,15.52	C9.006,15.667,8.992,15.84,8.992,16l-0.001,1.027c-0.244,0-0.423-0.066-0.607-0.187c-0.236-0.16-0.473-0.387-0.735-0.613	c-0.416-0.36-1.048-0.32-1.411,0.094c-0.361,0.413-0.317,1.053,0.1,1.413c0.124,0.107,0.263,0.24,0.409,0.36	c0.155,0.133,0.34,0.28,0.552,0.427c0.443,0.28,0.992,0.507,1.691,0.507v2.507c-4.051-1.28-6.988-5.066-6.988-9.546	c0-5.52,4.479-10,9.999-10c5.519,0,9.999,4.48,9.999,10C22,16.467,19.051,20.267,14.995,21.533z"/></svg>